<mxfile host="app.diagrams.net" modified="2024-01-08T19:50:02.208Z" agent="Mozilla/5.0 (Windows NT 10.0; Win64; x64) AppleWebKit/537.36 (KHTML, like Gecko) Chrome/120.0.0.0 Safari/537.36" etag="K1l3fGJ4BV9QnvVp5Hwj" version="22.1.17" type="device">
  <diagram id="C5RBs43oDa-KdzZeNtuy" name="Page-1">
    <mxGraphModel dx="1600" dy="714" grid="1" gridSize="10" guides="1" tooltips="1" connect="1" arrows="1" fold="1" page="1" pageScale="1" pageWidth="827" pageHeight="1169" math="0" shadow="0">
      <root>
        <mxCell id="WIyWlLk6GJQsqaUBKTNV-0" />
        <mxCell id="WIyWlLk6GJQsqaUBKTNV-1" parent="WIyWlLk6GJQsqaUBKTNV-0" />
        <mxCell id="crTm-84iP_dX2z0zRbLP-1" value="Dinner" style="rounded=0;whiteSpace=wrap;html=1;" parent="WIyWlLk6GJQsqaUBKTNV-1" vertex="1">
          <mxGeometry x="1740" y="820" width="120" height="60" as="geometry" />
        </mxCell>
        <mxCell id="crTm-84iP_dX2z0zRbLP-44" style="edgeStyle=orthogonalEdgeStyle;rounded=0;orthogonalLoop=1;jettySize=auto;html=1;exitDx=0;exitDy=0;noEdgeStyle=1;orthogonal=1;endArrow=none;endFill=0;" parent="WIyWlLk6GJQsqaUBKTNV-1" source="crTm-84iP_dX2z0zRbLP-2" target="crTm-84iP_dX2z0zRbLP-41" edge="1">
          <mxGeometry relative="1" as="geometry">
            <Array as="points">
              <mxPoint x="488.83333333333337" y="212" />
              <mxPoint x="904" y="288" />
            </Array>
          </mxGeometry>
        </mxCell>
        <mxCell id="zlERrwY3Ksykcgf0b52f-71" value="n" style="edgeLabel;html=1;align=center;verticalAlign=middle;resizable=0;points=[];" parent="crTm-84iP_dX2z0zRbLP-44" vertex="1" connectable="0">
          <mxGeometry x="0.9081" y="-1" relative="1" as="geometry">
            <mxPoint as="offset" />
          </mxGeometry>
        </mxCell>
        <mxCell id="crTm-84iP_dX2z0zRbLP-46" style="edgeStyle=orthogonalEdgeStyle;rounded=0;orthogonalLoop=1;jettySize=auto;html=1;exitDx=0;exitDy=0;noEdgeStyle=1;orthogonal=1;endArrow=none;endFill=0;" parent="WIyWlLk6GJQsqaUBKTNV-1" source="crTm-84iP_dX2z0zRbLP-2" target="crTm-84iP_dX2z0zRbLP-40" edge="1">
          <mxGeometry relative="1" as="geometry">
            <Array as="points">
              <mxPoint x="543.8333333333334" y="212" />
              <mxPoint x="1374" y="250" />
            </Array>
          </mxGeometry>
        </mxCell>
        <mxCell id="zlERrwY3Ksykcgf0b52f-74" value="n" style="edgeLabel;html=1;align=center;verticalAlign=middle;resizable=0;points=[];" parent="crTm-84iP_dX2z0zRbLP-46" vertex="1" connectable="0">
          <mxGeometry x="0.9575" y="-1" relative="1" as="geometry">
            <mxPoint as="offset" />
          </mxGeometry>
        </mxCell>
        <mxCell id="crTm-84iP_dX2z0zRbLP-2" value="Favorite" style="rounded=0;whiteSpace=wrap;html=1;" parent="WIyWlLk6GJQsqaUBKTNV-1" vertex="1">
          <mxGeometry x="456.33333333333337" y="140" width="120" height="60" as="geometry" />
        </mxCell>
        <mxCell id="crTm-84iP_dX2z0zRbLP-42" style="edgeStyle=orthogonalEdgeStyle;rounded=0;orthogonalLoop=1;jettySize=auto;html=1;exitDx=0;exitDy=0;noEdgeStyle=1;orthogonal=1;endArrow=none;endFill=0;" parent="WIyWlLk6GJQsqaUBKTNV-1" source="crTm-84iP_dX2z0zRbLP-3" target="crTm-84iP_dX2z0zRbLP-39" edge="1">
          <mxGeometry relative="1" as="geometry">
            <Array as="points">
              <mxPoint x="715.6666666666666" y="212" />
              <mxPoint x="794" y="288" />
            </Array>
          </mxGeometry>
        </mxCell>
        <mxCell id="zlERrwY3Ksykcgf0b52f-58" value="n" style="edgeLabel;html=1;align=center;verticalAlign=middle;resizable=0;points=[];" parent="crTm-84iP_dX2z0zRbLP-42" vertex="1" connectable="0">
          <mxGeometry x="0.8168" y="2" relative="1" as="geometry">
            <mxPoint x="-1" y="-1" as="offset" />
          </mxGeometry>
        </mxCell>
        <mxCell id="crTm-84iP_dX2z0zRbLP-3" value="HelpTicket" style="rounded=0;whiteSpace=wrap;html=1;" parent="WIyWlLk6GJQsqaUBKTNV-1" vertex="1">
          <mxGeometry x="655.6666666666666" y="140" width="120" height="60" as="geometry" />
        </mxCell>
        <mxCell id="crTm-84iP_dX2z0zRbLP-37" style="edgeStyle=orthogonalEdgeStyle;rounded=0;orthogonalLoop=1;jettySize=auto;html=1;exitDx=0;exitDy=0;noEdgeStyle=1;orthogonal=1;endArrow=none;endFill=0;entryX=0.5;entryY=0;entryDx=0;entryDy=0;exitX=0.5;exitY=1;" parent="WIyWlLk6GJQsqaUBKTNV-1" source="crTm-84iP_dX2z0zRbLP-4" target="crTm-84iP_dX2z0zRbLP-36" edge="1">
          <mxGeometry relative="1" as="geometry">
            <Array as="points" />
          </mxGeometry>
        </mxCell>
        <mxCell id="zlERrwY3Ksykcgf0b52f-83" value="n" style="edgeLabel;html=1;align=center;verticalAlign=middle;resizable=0;points=[];" parent="crTm-84iP_dX2z0zRbLP-37" vertex="1" connectable="0">
          <mxGeometry x="0.9573" y="2" relative="1" as="geometry">
            <mxPoint x="-9" y="-11" as="offset" />
          </mxGeometry>
        </mxCell>
        <mxCell id="U8JkH85nOoPwKwSKFlw1-0" style="edgeStyle=orthogonalEdgeStyle;rounded=0;orthogonalLoop=1;jettySize=auto;html=1;exitX=0;exitY=0.25;exitDx=0;exitDy=0;entryX=0.5;entryY=1;entryDx=0;entryDy=0;endArrow=none;endFill=0;" edge="1" parent="WIyWlLk6GJQsqaUBKTNV-1" source="crTm-84iP_dX2z0zRbLP-4" target="crTm-84iP_dX2z0zRbLP-75">
          <mxGeometry relative="1" as="geometry" />
        </mxCell>
        <mxCell id="U8JkH85nOoPwKwSKFlw1-1" style="edgeStyle=orthogonalEdgeStyle;rounded=0;orthogonalLoop=1;jettySize=auto;html=1;exitX=1;exitY=0.25;exitDx=0;exitDy=0;entryX=0.5;entryY=1;entryDx=0;entryDy=0;endArrow=none;endFill=0;" edge="1" parent="WIyWlLk6GJQsqaUBKTNV-1" source="crTm-84iP_dX2z0zRbLP-4" target="crTm-84iP_dX2z0zRbLP-74">
          <mxGeometry relative="1" as="geometry" />
        </mxCell>
        <mxCell id="crTm-84iP_dX2z0zRbLP-4" value="Invoice" style="rounded=0;whiteSpace=wrap;html=1;" parent="WIyWlLk6GJQsqaUBKTNV-1" vertex="1">
          <mxGeometry x="1127" y="140" width="120" height="60" as="geometry" />
        </mxCell>
        <mxCell id="crTm-84iP_dX2z0zRbLP-34" style="edgeStyle=orthogonalEdgeStyle;rounded=0;orthogonalLoop=1;jettySize=auto;html=1;exitDx=0;exitDy=0;entryDx=0;entryDy=0;noEdgeStyle=1;orthogonal=1;endArrow=none;endFill=0;" parent="WIyWlLk6GJQsqaUBKTNV-1" source="crTm-84iP_dX2z0zRbLP-5" target="crTm-84iP_dX2z0zRbLP-33" edge="1">
          <mxGeometry relative="1" as="geometry">
            <Array as="points">
              <mxPoint x="2661" y="552" />
              <mxPoint x="2130" y="628" />
            </Array>
          </mxGeometry>
        </mxCell>
        <mxCell id="zlERrwY3Ksykcgf0b52f-62" value="1" style="edgeLabel;html=1;align=center;verticalAlign=middle;resizable=0;points=[];" parent="crTm-84iP_dX2z0zRbLP-34" vertex="1" connectable="0">
          <mxGeometry x="0.9063" y="-1" relative="1" as="geometry">
            <mxPoint y="1" as="offset" />
          </mxGeometry>
        </mxCell>
        <mxCell id="crTm-84iP_dX2z0zRbLP-5" value="Meal" style="rounded=0;whiteSpace=wrap;html=1;" parent="WIyWlLk6GJQsqaUBKTNV-1" vertex="1">
          <mxGeometry x="2601" y="480" width="120" height="60" as="geometry" />
        </mxCell>
        <mxCell id="zlERrwY3Ksykcgf0b52f-44" style="edgeStyle=orthogonalEdgeStyle;rounded=0;orthogonalLoop=1;jettySize=auto;html=1;noEdgeStyle=1;orthogonal=1;endArrow=none;endFill=0;" parent="WIyWlLk6GJQsqaUBKTNV-1" source="crTm-84iP_dX2z0zRbLP-6" target="zlERrwY3Ksykcgf0b52f-40" edge="1">
          <mxGeometry relative="1" as="geometry">
            <Array as="points">
              <mxPoint x="1925" y="552" />
              <mxPoint x="2020" y="628" />
            </Array>
          </mxGeometry>
        </mxCell>
        <mxCell id="crTm-84iP_dX2z0zRbLP-6" value="Plate" style="rounded=0;whiteSpace=wrap;html=1;" parent="WIyWlLk6GJQsqaUBKTNV-1" vertex="1">
          <mxGeometry x="1865" y="480" width="120" height="60" as="geometry" />
        </mxCell>
        <mxCell id="crTm-84iP_dX2z0zRbLP-27" style="edgeStyle=orthogonalEdgeStyle;rounded=0;orthogonalLoop=1;jettySize=auto;html=1;exitDx=0;exitDy=0;noEdgeStyle=1;orthogonal=1;endArrow=none;endFill=0;entryX=0.5;entryY=0;entryDx=0;entryDy=0;" parent="WIyWlLk6GJQsqaUBKTNV-1" source="crTm-84iP_dX2z0zRbLP-7" target="crTm-84iP_dX2z0zRbLP-26" edge="1">
          <mxGeometry relative="1" as="geometry">
            <Array as="points">
              <mxPoint x="2060" y="214" />
              <mxPoint x="1800" y="280" />
            </Array>
          </mxGeometry>
        </mxCell>
        <mxCell id="zlERrwY3Ksykcgf0b52f-79" value="n" style="edgeLabel;html=1;align=center;verticalAlign=middle;resizable=0;points=[];" parent="crTm-84iP_dX2z0zRbLP-27" vertex="1" connectable="0">
          <mxGeometry x="0.9013" y="-1" relative="1" as="geometry">
            <mxPoint as="offset" />
          </mxGeometry>
        </mxCell>
        <mxCell id="crTm-84iP_dX2z0zRbLP-28" style="edgeStyle=orthogonalEdgeStyle;rounded=0;orthogonalLoop=1;jettySize=auto;html=1;exitDx=0;exitDy=0;noEdgeStyle=1;orthogonal=1;endArrow=none;endFill=0;entryX=0.5;entryY=0;entryDx=0;entryDy=0;" parent="WIyWlLk6GJQsqaUBKTNV-1" source="crTm-84iP_dX2z0zRbLP-7" target="crTm-84iP_dX2z0zRbLP-24" edge="1">
          <mxGeometry relative="1" as="geometry">
            <Array as="points">
              <mxPoint x="2023.3333333333333" y="212" />
              <mxPoint x="1500" y="250" />
            </Array>
          </mxGeometry>
        </mxCell>
        <mxCell id="zlERrwY3Ksykcgf0b52f-77" value="n" style="edgeLabel;html=1;align=center;verticalAlign=middle;resizable=0;points=[];" parent="crTm-84iP_dX2z0zRbLP-28" vertex="1" connectable="0">
          <mxGeometry x="0.9547" y="1" relative="1" as="geometry">
            <mxPoint y="1" as="offset" />
          </mxGeometry>
        </mxCell>
        <mxCell id="crTm-84iP_dX2z0zRbLP-29" style="edgeStyle=orthogonalEdgeStyle;rounded=0;orthogonalLoop=1;jettySize=auto;html=1;exitDx=0;exitDy=0;noEdgeStyle=1;orthogonal=1;endArrow=none;endFill=0;" parent="WIyWlLk6GJQsqaUBKTNV-1" source="crTm-84iP_dX2z0zRbLP-7" target="crTm-84iP_dX2z0zRbLP-25" edge="1">
          <mxGeometry relative="1" as="geometry">
            <Array as="points">
              <mxPoint x="2096.6666666666665" y="212" />
              <mxPoint x="2474" y="288" />
            </Array>
          </mxGeometry>
        </mxCell>
        <mxCell id="zlERrwY3Ksykcgf0b52f-85" value="n" style="edgeLabel;html=1;align=center;verticalAlign=middle;resizable=0;points=[];" parent="crTm-84iP_dX2z0zRbLP-29" vertex="1" connectable="0">
          <mxGeometry x="0.9085" relative="1" as="geometry">
            <mxPoint as="offset" />
          </mxGeometry>
        </mxCell>
        <mxCell id="crTm-84iP_dX2z0zRbLP-7" value="Request" style="rounded=0;whiteSpace=wrap;html=1;" parent="WIyWlLk6GJQsqaUBKTNV-1" vertex="1">
          <mxGeometry x="2000" y="140" width="120" height="60" as="geometry" />
        </mxCell>
        <mxCell id="crTm-84iP_dX2z0zRbLP-20" style="edgeStyle=orthogonalEdgeStyle;rounded=0;orthogonalLoop=1;jettySize=auto;html=1;exitDx=0;exitDy=0;entryDx=0;entryDy=0;noEdgeStyle=1;orthogonal=1;endArrow=none;endFill=0;entryX=0.5;entryY=1;exitX=0.5;exitY=1;" parent="WIyWlLk6GJQsqaUBKTNV-1" source="crTm-84iP_dX2z0zRbLP-8" target="crTm-84iP_dX2z0zRbLP-18" edge="1">
          <mxGeometry relative="1" as="geometry">
            <Array as="points">
              <mxPoint x="2969" y="450" />
              <mxPoint x="2260" y="930" />
              <mxPoint x="1410" y="930" />
              <mxPoint x="1340" y="880" />
            </Array>
          </mxGeometry>
        </mxCell>
        <mxCell id="zlERrwY3Ksykcgf0b52f-73" value="n" style="edgeLabel;html=1;align=center;verticalAlign=middle;resizable=0;points=[];" parent="crTm-84iP_dX2z0zRbLP-20" vertex="1" connectable="0">
          <mxGeometry x="0.9788" y="3" relative="1" as="geometry">
            <mxPoint as="offset" />
          </mxGeometry>
        </mxCell>
        <mxCell id="crTm-84iP_dX2z0zRbLP-21" style="edgeStyle=orthogonalEdgeStyle;rounded=0;orthogonalLoop=1;jettySize=auto;html=1;exitDx=0;exitDy=0;noEdgeStyle=1;orthogonal=1;endArrow=none;endFill=0;entryX=0.5;entryY=0;entryDx=0;entryDy=0;" parent="WIyWlLk6GJQsqaUBKTNV-1" source="crTm-84iP_dX2z0zRbLP-8" target="crTm-84iP_dX2z0zRbLP-19" edge="1">
          <mxGeometry relative="1" as="geometry">
            <Array as="points">
              <mxPoint x="3000" y="240" />
              <mxPoint x="2540" y="250" />
              <mxPoint x="2390" y="260" />
            </Array>
          </mxGeometry>
        </mxCell>
        <mxCell id="zlERrwY3Ksykcgf0b52f-81" value="n" style="edgeLabel;html=1;align=center;verticalAlign=middle;resizable=0;points=[];" parent="crTm-84iP_dX2z0zRbLP-21" vertex="1" connectable="0">
          <mxGeometry x="0.9707" y="-1" relative="1" as="geometry">
            <mxPoint as="offset" />
          </mxGeometry>
        </mxCell>
        <mxCell id="crTm-84iP_dX2z0zRbLP-8" value="Review" style="rounded=0;whiteSpace=wrap;html=1;" parent="WIyWlLk6GJQsqaUBKTNV-1" vertex="1">
          <mxGeometry x="2908.5" y="140" width="120" height="60" as="geometry" />
        </mxCell>
        <mxCell id="crTm-84iP_dX2z0zRbLP-13" style="edgeStyle=orthogonalEdgeStyle;rounded=0;orthogonalLoop=1;jettySize=auto;html=1;exitDx=0;exitDy=0;entryDx=0;entryDy=0;noEdgeStyle=1;orthogonal=1;endArrow=none;endFill=0;" parent="WIyWlLk6GJQsqaUBKTNV-1" source="crTm-84iP_dX2z0zRbLP-9" target="crTm-84iP_dX2z0zRbLP-12" edge="1">
          <mxGeometry relative="1" as="geometry">
            <Array as="points">
              <mxPoint x="2210" y="212" />
              <mxPoint x="2584" y="288" />
            </Array>
          </mxGeometry>
        </mxCell>
        <mxCell id="zlERrwY3Ksykcgf0b52f-64" value="1" style="edgeLabel;html=1;align=center;verticalAlign=middle;resizable=0;points=[];" parent="crTm-84iP_dX2z0zRbLP-13" vertex="1" connectable="0">
          <mxGeometry x="0.8669" y="1" relative="1" as="geometry">
            <mxPoint as="offset" />
          </mxGeometry>
        </mxCell>
        <mxCell id="crTm-84iP_dX2z0zRbLP-9" value="Supplier" style="rounded=0;whiteSpace=wrap;html=1;" parent="WIyWlLk6GJQsqaUBKTNV-1" vertex="1">
          <mxGeometry x="2150" y="140" width="120" height="60" as="geometry" />
        </mxCell>
        <mxCell id="crTm-84iP_dX2z0zRbLP-10" value="UserInfo" style="rounded=0;whiteSpace=wrap;html=1;" parent="WIyWlLk6GJQsqaUBKTNV-1" vertex="1">
          <mxGeometry x="1420.8" y="140" width="120" height="60" as="geometry" />
        </mxCell>
        <mxCell id="U8JkH85nOoPwKwSKFlw1-2" style="edgeStyle=orthogonalEdgeStyle;rounded=0;orthogonalLoop=1;jettySize=auto;html=1;exitX=1;exitY=0.5;exitDx=0;exitDy=0;entryX=0;entryY=0.5;entryDx=0;entryDy=0;endArrow=none;endFill=0;" edge="1" parent="WIyWlLk6GJQsqaUBKTNV-1" source="crTm-84iP_dX2z0zRbLP-11" target="crTm-84iP_dX2z0zRbLP-15">
          <mxGeometry relative="1" as="geometry" />
        </mxCell>
        <mxCell id="U8JkH85nOoPwKwSKFlw1-5" value="1" style="edgeLabel;html=1;align=center;verticalAlign=middle;resizable=0;points=[];" vertex="1" connectable="0" parent="U8JkH85nOoPwKwSKFlw1-2">
          <mxGeometry x="0.8167" y="-3" relative="1" as="geometry">
            <mxPoint as="offset" />
          </mxGeometry>
        </mxCell>
        <mxCell id="crTm-84iP_dX2z0zRbLP-11" value="User" style="rounded=0;whiteSpace=wrap;html=1;" parent="WIyWlLk6GJQsqaUBKTNV-1" vertex="1">
          <mxGeometry x="1089.2" y="480" width="120" height="60" as="geometry" />
        </mxCell>
        <mxCell id="crTm-84iP_dX2z0zRbLP-14" style="edgeStyle=orthogonalEdgeStyle;rounded=0;orthogonalLoop=1;jettySize=auto;html=1;exitDx=0;exitDy=0;noEdgeStyle=1;orthogonal=1;endArrow=none;endFill=0;" parent="WIyWlLk6GJQsqaUBKTNV-1" source="crTm-84iP_dX2z0zRbLP-12" target="crTm-84iP_dX2z0zRbLP-6" edge="1">
          <mxGeometry relative="1" as="geometry">
            <Array as="points">
              <mxPoint x="2584" y="392" />
              <mxPoint x="1973.8888888888885" y="468" />
            </Array>
          </mxGeometry>
        </mxCell>
        <mxCell id="zlERrwY3Ksykcgf0b52f-65" value="n" style="edgeLabel;html=1;align=center;verticalAlign=middle;resizable=0;points=[];" parent="crTm-84iP_dX2z0zRbLP-14" vertex="1" connectable="0">
          <mxGeometry x="-0.9248" relative="1" as="geometry">
            <mxPoint as="offset" />
          </mxGeometry>
        </mxCell>
        <mxCell id="crTm-84iP_dX2z0zRbLP-12" value="Contem" style="rhombus;whiteSpace=wrap;html=1;" parent="WIyWlLk6GJQsqaUBKTNV-1" vertex="1">
          <mxGeometry x="2544" y="300" width="80" height="80" as="geometry" />
        </mxCell>
        <mxCell id="U8JkH85nOoPwKwSKFlw1-4" style="edgeStyle=orthogonalEdgeStyle;rounded=0;orthogonalLoop=1;jettySize=auto;html=1;exitX=0.5;exitY=0;exitDx=0;exitDy=0;entryX=0.25;entryY=1;entryDx=0;entryDy=0;endArrow=none;endFill=0;" edge="1" parent="WIyWlLk6GJQsqaUBKTNV-1" source="crTm-84iP_dX2z0zRbLP-15" target="crTm-84iP_dX2z0zRbLP-10">
          <mxGeometry relative="1" as="geometry" />
        </mxCell>
        <mxCell id="U8JkH85nOoPwKwSKFlw1-6" value="1" style="edgeLabel;html=1;align=center;verticalAlign=middle;resizable=0;points=[];" vertex="1" connectable="0" parent="U8JkH85nOoPwKwSKFlw1-4">
          <mxGeometry x="-0.9063" y="1" relative="1" as="geometry">
            <mxPoint as="offset" />
          </mxGeometry>
        </mxCell>
        <mxCell id="crTm-84iP_dX2z0zRbLP-15" value="Contem" style="rhombus;whiteSpace=wrap;html=1;" parent="WIyWlLk6GJQsqaUBKTNV-1" vertex="1">
          <mxGeometry x="1390" y="470" width="80" height="80" as="geometry" />
        </mxCell>
        <mxCell id="crTm-84iP_dX2z0zRbLP-23" style="edgeStyle=orthogonalEdgeStyle;rounded=0;orthogonalLoop=1;jettySize=auto;html=1;exitDx=0;exitDy=0;entryDx=0;entryDy=0;noEdgeStyle=1;orthogonal=1;endArrow=none;endFill=0;entryX=0.75;entryY=1;exitX=0.5;exitY=0;" parent="WIyWlLk6GJQsqaUBKTNV-1" source="crTm-84iP_dX2z0zRbLP-18" target="crTm-84iP_dX2z0zRbLP-11" edge="1">
          <mxGeometry relative="1" as="geometry">
            <Array as="points">
              <mxPoint x="1340" y="700" />
              <mxPoint x="1180" y="690" />
            </Array>
          </mxGeometry>
        </mxCell>
        <mxCell id="zlERrwY3Ksykcgf0b52f-72" value="1" style="edgeLabel;html=1;align=center;verticalAlign=middle;resizable=0;points=[];" parent="crTm-84iP_dX2z0zRbLP-23" vertex="1" connectable="0">
          <mxGeometry x="-0.7612" y="-1" relative="1" as="geometry">
            <mxPoint as="offset" />
          </mxGeometry>
        </mxCell>
        <mxCell id="crTm-84iP_dX2z0zRbLP-18" value="Contem" style="rhombus;whiteSpace=wrap;html=1;" parent="WIyWlLk6GJQsqaUBKTNV-1" vertex="1">
          <mxGeometry x="1300" y="750" width="80" height="80" as="geometry" />
        </mxCell>
        <mxCell id="crTm-84iP_dX2z0zRbLP-22" style="edgeStyle=orthogonalEdgeStyle;rounded=0;orthogonalLoop=1;jettySize=auto;html=1;noEdgeStyle=1;orthogonal=1;endArrow=none;endFill=0;exitX=0.5;exitY=1;exitDx=0;exitDy=0;" parent="WIyWlLk6GJQsqaUBKTNV-1" source="crTm-84iP_dX2z0zRbLP-19" target="crTm-84iP_dX2z0zRbLP-6" edge="1">
          <mxGeometry relative="1" as="geometry">
            <Array as="points">
              <mxPoint x="1900" y="410" />
              <mxPoint x="1900.5555555555554" y="464" />
            </Array>
          </mxGeometry>
        </mxCell>
        <mxCell id="zlERrwY3Ksykcgf0b52f-80" value="1" style="edgeLabel;html=1;align=center;verticalAlign=middle;resizable=0;points=[];" parent="crTm-84iP_dX2z0zRbLP-22" vertex="1" connectable="0">
          <mxGeometry x="-0.8364" y="1" relative="1" as="geometry">
            <mxPoint x="-1" as="offset" />
          </mxGeometry>
        </mxCell>
        <mxCell id="crTm-84iP_dX2z0zRbLP-19" value="Contem" style="rhombus;whiteSpace=wrap;html=1;" parent="WIyWlLk6GJQsqaUBKTNV-1" vertex="1">
          <mxGeometry x="2340" y="290" width="80" height="80" as="geometry" />
        </mxCell>
        <mxCell id="crTm-84iP_dX2z0zRbLP-31" style="edgeStyle=orthogonalEdgeStyle;rounded=0;orthogonalLoop=1;jettySize=auto;html=1;noEdgeStyle=1;orthogonal=1;endArrow=none;endFill=0;exitX=0.5;exitY=1;exitDx=0;exitDy=0;" parent="WIyWlLk6GJQsqaUBKTNV-1" source="crTm-84iP_dX2z0zRbLP-24" target="crTm-84iP_dX2z0zRbLP-11" edge="1">
          <mxGeometry relative="1" as="geometry">
            <Array as="points">
              <mxPoint x="1500" y="430" />
              <mxPoint x="1190.45" y="468" />
            </Array>
          </mxGeometry>
        </mxCell>
        <mxCell id="zlERrwY3Ksykcgf0b52f-76" value="1" style="edgeLabel;html=1;align=center;verticalAlign=middle;resizable=0;points=[];" parent="crTm-84iP_dX2z0zRbLP-31" vertex="1" connectable="0">
          <mxGeometry x="-0.9267" y="2" relative="1" as="geometry">
            <mxPoint x="1" as="offset" />
          </mxGeometry>
        </mxCell>
        <mxCell id="crTm-84iP_dX2z0zRbLP-24" value="Contem" style="rhombus;whiteSpace=wrap;html=1;" parent="WIyWlLk6GJQsqaUBKTNV-1" vertex="1">
          <mxGeometry x="1460" y="300" width="80" height="80" as="geometry" />
        </mxCell>
        <mxCell id="crTm-84iP_dX2z0zRbLP-30" style="edgeStyle=orthogonalEdgeStyle;rounded=0;orthogonalLoop=1;jettySize=auto;html=1;exitDx=0;exitDy=0;noEdgeStyle=1;orthogonal=1;endArrow=none;endFill=0;" parent="WIyWlLk6GJQsqaUBKTNV-1" source="crTm-84iP_dX2z0zRbLP-25" target="crTm-84iP_dX2z0zRbLP-5" edge="1">
          <mxGeometry relative="1" as="geometry">
            <Array as="points">
              <mxPoint x="2474" y="392" />
              <mxPoint x="2633.5" y="466" />
            </Array>
          </mxGeometry>
        </mxCell>
        <mxCell id="zlERrwY3Ksykcgf0b52f-84" value="1" style="edgeLabel;html=1;align=center;verticalAlign=middle;resizable=0;points=[];" parent="crTm-84iP_dX2z0zRbLP-30" vertex="1" connectable="0">
          <mxGeometry x="-0.8207" y="-2" relative="1" as="geometry">
            <mxPoint x="1" as="offset" />
          </mxGeometry>
        </mxCell>
        <mxCell id="crTm-84iP_dX2z0zRbLP-25" value="Contem" style="rhombus;whiteSpace=wrap;html=1;" parent="WIyWlLk6GJQsqaUBKTNV-1" vertex="1">
          <mxGeometry x="2434" y="300" width="80" height="80" as="geometry" />
        </mxCell>
        <mxCell id="crTm-84iP_dX2z0zRbLP-32" style="edgeStyle=orthogonalEdgeStyle;rounded=0;orthogonalLoop=1;jettySize=auto;html=1;noEdgeStyle=1;orthogonal=1;endArrow=none;endFill=0;exitX=0.5;exitY=1;exitDx=0;exitDy=0;" parent="WIyWlLk6GJQsqaUBKTNV-1" source="crTm-84iP_dX2z0zRbLP-26" target="crTm-84iP_dX2z0zRbLP-6" edge="1">
          <mxGeometry relative="1" as="geometry">
            <Array as="points">
              <mxPoint x="1690" y="410" />
              <mxPoint x="1888.3333333333333" y="466" />
            </Array>
          </mxGeometry>
        </mxCell>
        <mxCell id="zlERrwY3Ksykcgf0b52f-78" value="1" style="edgeLabel;html=1;align=center;verticalAlign=middle;resizable=0;points=[];" parent="crTm-84iP_dX2z0zRbLP-32" vertex="1" connectable="0">
          <mxGeometry x="-0.8727" y="-1" relative="1" as="geometry">
            <mxPoint as="offset" />
          </mxGeometry>
        </mxCell>
        <mxCell id="crTm-84iP_dX2z0zRbLP-26" value="Contem" style="rhombus;whiteSpace=wrap;html=1;" parent="WIyWlLk6GJQsqaUBKTNV-1" vertex="1">
          <mxGeometry x="1650" y="300" width="80" height="80" as="geometry" />
        </mxCell>
        <mxCell id="crTm-84iP_dX2z0zRbLP-35" style="edgeStyle=orthogonalEdgeStyle;rounded=0;orthogonalLoop=1;jettySize=auto;html=1;exitDx=0;exitDy=0;noEdgeStyle=1;orthogonal=1;endArrow=none;endFill=0;" parent="WIyWlLk6GJQsqaUBKTNV-1" source="crTm-84iP_dX2z0zRbLP-33" target="crTm-84iP_dX2z0zRbLP-1" edge="1">
          <mxGeometry relative="1" as="geometry">
            <Array as="points">
              <mxPoint x="2130" y="732" />
              <mxPoint x="1822" y="806" />
            </Array>
          </mxGeometry>
        </mxCell>
        <mxCell id="zlERrwY3Ksykcgf0b52f-63" value="n" style="edgeLabel;html=1;align=center;verticalAlign=middle;resizable=0;points=[];" parent="crTm-84iP_dX2z0zRbLP-35" vertex="1" connectable="0">
          <mxGeometry x="-0.8625" y="-1" relative="1" as="geometry">
            <mxPoint as="offset" />
          </mxGeometry>
        </mxCell>
        <mxCell id="crTm-84iP_dX2z0zRbLP-33" value="Contem" style="rhombus;whiteSpace=wrap;html=1;" parent="WIyWlLk6GJQsqaUBKTNV-1" vertex="1">
          <mxGeometry x="2090" y="640" width="80" height="80" as="geometry" />
        </mxCell>
        <mxCell id="crTm-84iP_dX2z0zRbLP-38" style="edgeStyle=orthogonalEdgeStyle;rounded=0;orthogonalLoop=1;jettySize=auto;html=1;noEdgeStyle=1;orthogonal=1;endArrow=none;endFill=0;entryX=0;entryY=0.5;entryDx=0;entryDy=0;exitX=1;exitY=0.5;exitDx=0;exitDy=0;" parent="WIyWlLk6GJQsqaUBKTNV-1" source="crTm-84iP_dX2z0zRbLP-36" target="crTm-84iP_dX2z0zRbLP-5" edge="1">
          <mxGeometry relative="1" as="geometry">
            <Array as="points">
              <mxPoint x="2420" y="520" />
            </Array>
          </mxGeometry>
        </mxCell>
        <mxCell id="zlERrwY3Ksykcgf0b52f-82" value="1" style="edgeLabel;html=1;align=center;verticalAlign=middle;resizable=0;points=[];" parent="crTm-84iP_dX2z0zRbLP-38" vertex="1" connectable="0">
          <mxGeometry x="-0.8424" y="-1" relative="1" as="geometry">
            <mxPoint x="-53" as="offset" />
          </mxGeometry>
        </mxCell>
        <mxCell id="crTm-84iP_dX2z0zRbLP-36" value="Contem" style="rhombus;whiteSpace=wrap;html=1;" parent="WIyWlLk6GJQsqaUBKTNV-1" vertex="1">
          <mxGeometry x="1290" y="590" width="80" height="80" as="geometry" />
        </mxCell>
        <mxCell id="crTm-84iP_dX2z0zRbLP-43" style="edgeStyle=orthogonalEdgeStyle;rounded=0;orthogonalLoop=1;jettySize=auto;html=1;noEdgeStyle=1;orthogonal=1;endArrow=none;endFill=0;" parent="WIyWlLk6GJQsqaUBKTNV-1" source="crTm-84iP_dX2z0zRbLP-39" target="crTm-84iP_dX2z0zRbLP-11" edge="1">
          <mxGeometry relative="1" as="geometry">
            <Array as="points">
              <mxPoint x="794" y="392" />
              <mxPoint x="1107.95" y="468" />
            </Array>
          </mxGeometry>
        </mxCell>
        <mxCell id="zlERrwY3Ksykcgf0b52f-59" value="1" style="edgeLabel;html=1;align=center;verticalAlign=middle;resizable=0;points=[];" parent="crTm-84iP_dX2z0zRbLP-43" vertex="1" connectable="0">
          <mxGeometry x="-0.9104" y="-1" relative="1" as="geometry">
            <mxPoint as="offset" />
          </mxGeometry>
        </mxCell>
        <mxCell id="crTm-84iP_dX2z0zRbLP-39" value="Contem" style="rhombus;whiteSpace=wrap;html=1;" parent="WIyWlLk6GJQsqaUBKTNV-1" vertex="1">
          <mxGeometry x="754" y="300" width="80" height="80" as="geometry" />
        </mxCell>
        <mxCell id="crTm-84iP_dX2z0zRbLP-47" style="edgeStyle=orthogonalEdgeStyle;rounded=0;orthogonalLoop=1;jettySize=auto;html=1;noEdgeStyle=1;orthogonal=1;endArrow=none;endFill=0;" parent="WIyWlLk6GJQsqaUBKTNV-1" source="crTm-84iP_dX2z0zRbLP-40" target="crTm-84iP_dX2z0zRbLP-6" edge="1">
          <mxGeometry relative="1" as="geometry">
            <Array as="points">
              <mxPoint x="1374" y="392" />
              <mxPoint x="1876.111111111111" y="468" />
            </Array>
          </mxGeometry>
        </mxCell>
        <mxCell id="zlERrwY3Ksykcgf0b52f-75" value="1" style="edgeLabel;html=1;align=center;verticalAlign=middle;resizable=0;points=[];" parent="crTm-84iP_dX2z0zRbLP-47" vertex="1" connectable="0">
          <mxGeometry x="-0.9303" y="-1" relative="1" as="geometry">
            <mxPoint as="offset" />
          </mxGeometry>
        </mxCell>
        <mxCell id="crTm-84iP_dX2z0zRbLP-40" value="Contem" style="rhombus;whiteSpace=wrap;html=1;" parent="WIyWlLk6GJQsqaUBKTNV-1" vertex="1">
          <mxGeometry x="1334" y="300" width="80" height="80" as="geometry" />
        </mxCell>
        <mxCell id="crTm-84iP_dX2z0zRbLP-45" style="edgeStyle=orthogonalEdgeStyle;rounded=0;orthogonalLoop=1;jettySize=auto;html=1;noEdgeStyle=1;orthogonal=1;endArrow=none;endFill=0;" parent="WIyWlLk6GJQsqaUBKTNV-1" source="crTm-84iP_dX2z0zRbLP-41" target="crTm-84iP_dX2z0zRbLP-11" edge="1">
          <mxGeometry relative="1" as="geometry">
            <Array as="points">
              <mxPoint x="904" y="392" />
              <mxPoint x="1135.45" y="466" />
            </Array>
          </mxGeometry>
        </mxCell>
        <mxCell id="zlERrwY3Ksykcgf0b52f-67" value="1" style="edgeLabel;html=1;align=center;verticalAlign=middle;resizable=0;points=[];" parent="crTm-84iP_dX2z0zRbLP-45" vertex="1" connectable="0">
          <mxGeometry x="-0.87" y="2" relative="1" as="geometry">
            <mxPoint as="offset" />
          </mxGeometry>
        </mxCell>
        <mxCell id="crTm-84iP_dX2z0zRbLP-41" value="Contem" style="rhombus;whiteSpace=wrap;html=1;" parent="WIyWlLk6GJQsqaUBKTNV-1" vertex="1">
          <mxGeometry x="864" y="300" width="80" height="80" as="geometry" />
        </mxCell>
        <mxCell id="crTm-84iP_dX2z0zRbLP-52" style="edgeStyle=orthogonalEdgeStyle;rounded=0;orthogonalLoop=1;jettySize=auto;html=1;noEdgeStyle=1;orthogonal=1;endArrow=none;endFill=0;" parent="WIyWlLk6GJQsqaUBKTNV-1" source="crTm-84iP_dX2z0zRbLP-48" target="crTm-84iP_dX2z0zRbLP-1" edge="1">
          <mxGeometry relative="1" as="geometry">
            <mxPoint x="960" y="760" as="targetPoint" />
            <Array as="points">
              <mxPoint x="2240" y="732" />
              <mxPoint x="1844" y="808" />
            </Array>
          </mxGeometry>
        </mxCell>
        <mxCell id="crTm-84iP_dX2z0zRbLP-48" value="id" style="ellipse;whiteSpace=wrap;html=1;" parent="WIyWlLk6GJQsqaUBKTNV-1" vertex="1">
          <mxGeometry x="2200" y="660" width="80" height="40" as="geometry" />
        </mxCell>
        <mxCell id="crTm-84iP_dX2z0zRbLP-53" style="edgeStyle=orthogonalEdgeStyle;rounded=0;orthogonalLoop=1;jettySize=auto;html=1;noEdgeStyle=1;orthogonal=1;endArrow=none;endFill=0;" parent="WIyWlLk6GJQsqaUBKTNV-1" source="crTm-84iP_dX2z0zRbLP-49" target="crTm-84iP_dX2z0zRbLP-1" edge="1">
          <mxGeometry relative="1" as="geometry">
            <Array as="points">
              <mxPoint x="1580" y="732" />
              <mxPoint x="1756" y="808" />
            </Array>
          </mxGeometry>
        </mxCell>
        <mxCell id="crTm-84iP_dX2z0zRbLP-49" value="isClean" style="ellipse;whiteSpace=wrap;html=1;" parent="WIyWlLk6GJQsqaUBKTNV-1" vertex="1">
          <mxGeometry x="1540" y="660" width="80" height="40" as="geometry" />
        </mxCell>
        <mxCell id="crTm-84iP_dX2z0zRbLP-55" style="edgeStyle=orthogonalEdgeStyle;rounded=0;orthogonalLoop=1;jettySize=auto;html=1;noEdgeStyle=1;orthogonal=1;endArrow=none;endFill=0;" parent="WIyWlLk6GJQsqaUBKTNV-1" source="crTm-84iP_dX2z0zRbLP-50" target="crTm-84iP_dX2z0zRbLP-1" edge="1">
          <mxGeometry relative="1" as="geometry">
            <Array as="points">
              <mxPoint x="1690" y="732" />
              <mxPoint x="1778" y="806" />
            </Array>
          </mxGeometry>
        </mxCell>
        <mxCell id="crTm-84iP_dX2z0zRbLP-50" value="date_time" style="ellipse;whiteSpace=wrap;html=1;" parent="WIyWlLk6GJQsqaUBKTNV-1" vertex="1">
          <mxGeometry x="1650" y="660" width="80" height="40" as="geometry" />
        </mxCell>
        <mxCell id="crTm-84iP_dX2z0zRbLP-54" style="edgeStyle=orthogonalEdgeStyle;rounded=0;orthogonalLoop=1;jettySize=auto;html=1;noEdgeStyle=1;orthogonal=1;endArrow=none;endFill=0;" parent="WIyWlLk6GJQsqaUBKTNV-1" source="crTm-84iP_dX2z0zRbLP-51" target="crTm-84iP_dX2z0zRbLP-1" edge="1">
          <mxGeometry relative="1" as="geometry">
            <Array as="points">
              <mxPoint x="1800" y="732" />
              <mxPoint x="1800" y="804" />
            </Array>
          </mxGeometry>
        </mxCell>
        <mxCell id="crTm-84iP_dX2z0zRbLP-51" value="name" style="ellipse;whiteSpace=wrap;html=1;" parent="WIyWlLk6GJQsqaUBKTNV-1" vertex="1">
          <mxGeometry x="1760" y="660" width="80" height="40" as="geometry" />
        </mxCell>
        <mxCell id="crTm-84iP_dX2z0zRbLP-60" style="edgeStyle=orthogonalEdgeStyle;rounded=0;orthogonalLoop=1;jettySize=auto;html=1;exitDx=0;exitDy=0;noEdgeStyle=1;orthogonal=1;endArrow=none;endFill=0;" parent="WIyWlLk6GJQsqaUBKTNV-1" source="crTm-84iP_dX2z0zRbLP-56" target="crTm-84iP_dX2z0zRbLP-2" edge="1">
          <mxGeometry relative="1" as="geometry">
            <Array as="points">
              <mxPoint x="370" y="52" />
              <mxPoint x="557.5833333333334" y="128" />
            </Array>
          </mxGeometry>
        </mxCell>
        <mxCell id="crTm-84iP_dX2z0zRbLP-56" value="id" style="ellipse;whiteSpace=wrap;html=1;" parent="WIyWlLk6GJQsqaUBKTNV-1" vertex="1">
          <mxGeometry x="330" width="80" height="40" as="geometry" />
        </mxCell>
        <mxCell id="crTm-84iP_dX2z0zRbLP-61" style="edgeStyle=orthogonalEdgeStyle;rounded=0;orthogonalLoop=1;jettySize=auto;html=1;noEdgeStyle=1;orthogonal=1;endArrow=none;endFill=0;" parent="WIyWlLk6GJQsqaUBKTNV-1" source="crTm-84iP_dX2z0zRbLP-57" target="crTm-84iP_dX2z0zRbLP-2" edge="1">
          <mxGeometry relative="1" as="geometry">
            <mxPoint x="590" y="40" as="sourcePoint" />
            <Array as="points">
              <mxPoint x="40" y="52" />
              <mxPoint x="475.08333333333337" y="128" />
            </Array>
          </mxGeometry>
        </mxCell>
        <mxCell id="crTm-84iP_dX2z0zRbLP-57" value="user_id" style="ellipse;whiteSpace=wrap;html=1;" parent="WIyWlLk6GJQsqaUBKTNV-1" vertex="1">
          <mxGeometry width="80" height="40" as="geometry" />
        </mxCell>
        <mxCell id="crTm-84iP_dX2z0zRbLP-62" style="edgeStyle=orthogonalEdgeStyle;rounded=0;orthogonalLoop=1;jettySize=auto;html=1;noEdgeStyle=1;orthogonal=1;endArrow=none;endFill=0;" parent="WIyWlLk6GJQsqaUBKTNV-1" source="crTm-84iP_dX2z0zRbLP-58" target="crTm-84iP_dX2z0zRbLP-2" edge="1">
          <mxGeometry relative="1" as="geometry">
            <Array as="points">
              <mxPoint x="150" y="52" />
              <mxPoint x="502.58333333333337" y="126" />
            </Array>
          </mxGeometry>
        </mxCell>
        <mxCell id="crTm-84iP_dX2z0zRbLP-58" value="date_time" style="ellipse;whiteSpace=wrap;html=1;" parent="WIyWlLk6GJQsqaUBKTNV-1" vertex="1">
          <mxGeometry x="110" width="80" height="40" as="geometry" />
        </mxCell>
        <mxCell id="crTm-84iP_dX2z0zRbLP-63" style="edgeStyle=orthogonalEdgeStyle;rounded=0;orthogonalLoop=1;jettySize=auto;html=1;noEdgeStyle=1;orthogonal=1;endArrow=none;endFill=0;" parent="WIyWlLk6GJQsqaUBKTNV-1" source="crTm-84iP_dX2z0zRbLP-59" target="crTm-84iP_dX2z0zRbLP-2" edge="1">
          <mxGeometry relative="1" as="geometry">
            <Array as="points">
              <mxPoint x="260" y="52" />
              <mxPoint x="530.0833333333334" y="126" />
            </Array>
          </mxGeometry>
        </mxCell>
        <mxCell id="crTm-84iP_dX2z0zRbLP-59" value="palte_id" style="ellipse;whiteSpace=wrap;html=1;" parent="WIyWlLk6GJQsqaUBKTNV-1" vertex="1">
          <mxGeometry x="220" width="80" height="40" as="geometry" />
        </mxCell>
        <mxCell id="crTm-84iP_dX2z0zRbLP-69" style="edgeStyle=orthogonalEdgeStyle;rounded=0;orthogonalLoop=1;jettySize=auto;html=1;noEdgeStyle=1;orthogonal=1;endArrow=none;endFill=0;" parent="WIyWlLk6GJQsqaUBKTNV-1" source="crTm-84iP_dX2z0zRbLP-64" target="crTm-84iP_dX2z0zRbLP-3" edge="1">
          <mxGeometry relative="1" as="geometry">
            <Array as="points">
              <mxPoint x="920" y="52" />
              <mxPoint x="759.6666666666666" y="128" />
            </Array>
          </mxGeometry>
        </mxCell>
        <mxCell id="crTm-84iP_dX2z0zRbLP-64" value="id" style="ellipse;whiteSpace=wrap;html=1;" parent="WIyWlLk6GJQsqaUBKTNV-1" vertex="1">
          <mxGeometry x="880" width="80" height="40" as="geometry" />
        </mxCell>
        <mxCell id="crTm-84iP_dX2z0zRbLP-70" style="edgeStyle=orthogonalEdgeStyle;rounded=0;orthogonalLoop=1;jettySize=auto;html=1;noEdgeStyle=1;orthogonal=1;endArrow=none;endFill=0;" parent="WIyWlLk6GJQsqaUBKTNV-1" source="crTm-84iP_dX2z0zRbLP-65" target="crTm-84iP_dX2z0zRbLP-3" edge="1">
          <mxGeometry relative="1" as="geometry">
            <Array as="points">
              <mxPoint x="480" y="52" />
              <mxPoint x="671.6666666666666" y="128" />
            </Array>
          </mxGeometry>
        </mxCell>
        <mxCell id="crTm-84iP_dX2z0zRbLP-65" value="user_id" style="ellipse;whiteSpace=wrap;html=1;" parent="WIyWlLk6GJQsqaUBKTNV-1" vertex="1">
          <mxGeometry x="440" width="80" height="40" as="geometry" />
        </mxCell>
        <mxCell id="crTm-84iP_dX2z0zRbLP-71" style="edgeStyle=orthogonalEdgeStyle;rounded=0;orthogonalLoop=1;jettySize=auto;html=1;noEdgeStyle=1;orthogonal=1;endArrow=none;endFill=0;" parent="WIyWlLk6GJQsqaUBKTNV-1" source="crTm-84iP_dX2z0zRbLP-66" target="crTm-84iP_dX2z0zRbLP-3" edge="1">
          <mxGeometry relative="1" as="geometry">
            <Array as="points">
              <mxPoint x="590" y="52" />
              <mxPoint x="693.6666666666666" y="126" />
            </Array>
            <mxPoint x="580" y="20" as="sourcePoint" />
          </mxGeometry>
        </mxCell>
        <mxCell id="crTm-84iP_dX2z0zRbLP-66" value="needHelp" style="ellipse;whiteSpace=wrap;html=1;" parent="WIyWlLk6GJQsqaUBKTNV-1" vertex="1">
          <mxGeometry x="550" width="80" height="40" as="geometry" />
        </mxCell>
        <mxCell id="crTm-84iP_dX2z0zRbLP-73" style="edgeStyle=orthogonalEdgeStyle;rounded=0;orthogonalLoop=1;jettySize=auto;html=1;noEdgeStyle=1;orthogonal=1;endArrow=none;endFill=0;" parent="WIyWlLk6GJQsqaUBKTNV-1" source="crTm-84iP_dX2z0zRbLP-67" target="crTm-84iP_dX2z0zRbLP-3" edge="1">
          <mxGeometry relative="1" as="geometry">
            <Array as="points">
              <mxPoint x="700" y="52" />
              <mxPoint x="715.6666666666666" y="124" />
            </Array>
          </mxGeometry>
        </mxCell>
        <mxCell id="crTm-84iP_dX2z0zRbLP-67" value="date_time" style="ellipse;whiteSpace=wrap;html=1;" parent="WIyWlLk6GJQsqaUBKTNV-1" vertex="1">
          <mxGeometry x="660" width="80" height="40" as="geometry" />
        </mxCell>
        <mxCell id="crTm-84iP_dX2z0zRbLP-72" style="edgeStyle=orthogonalEdgeStyle;rounded=0;orthogonalLoop=1;jettySize=auto;html=1;noEdgeStyle=1;orthogonal=1;endArrow=none;endFill=0;" parent="WIyWlLk6GJQsqaUBKTNV-1" source="crTm-84iP_dX2z0zRbLP-68" target="crTm-84iP_dX2z0zRbLP-3" edge="1">
          <mxGeometry relative="1" as="geometry">
            <Array as="points">
              <mxPoint x="810" y="52" />
              <mxPoint x="737.6666666666666" y="126" />
            </Array>
          </mxGeometry>
        </mxCell>
        <mxCell id="crTm-84iP_dX2z0zRbLP-68" value="description" style="ellipse;whiteSpace=wrap;html=1;" parent="WIyWlLk6GJQsqaUBKTNV-1" vertex="1">
          <mxGeometry x="770" width="80" height="40" as="geometry" />
        </mxCell>
        <mxCell id="crTm-84iP_dX2z0zRbLP-74" value="id" style="ellipse;whiteSpace=wrap;html=1;" parent="WIyWlLk6GJQsqaUBKTNV-1" vertex="1">
          <mxGeometry x="1270" y="70" width="80" height="40" as="geometry" />
        </mxCell>
        <mxCell id="crTm-84iP_dX2z0zRbLP-75" value="price" style="ellipse;whiteSpace=wrap;html=1;" parent="WIyWlLk6GJQsqaUBKTNV-1" vertex="1">
          <mxGeometry x="960" y="70" width="80" height="40" as="geometry" />
        </mxCell>
        <mxCell id="crTm-84iP_dX2z0zRbLP-81" style="edgeStyle=orthogonalEdgeStyle;rounded=0;orthogonalLoop=1;jettySize=auto;html=1;noEdgeStyle=1;orthogonal=1;endArrow=none;endFill=0;" parent="WIyWlLk6GJQsqaUBKTNV-1" source="crTm-84iP_dX2z0zRbLP-76" target="crTm-84iP_dX2z0zRbLP-4" edge="1">
          <mxGeometry relative="1" as="geometry">
            <mxPoint x="1470" y="40" as="sourcePoint" />
            <Array as="points">
              <mxPoint x="1250" y="52" />
              <mxPoint x="1223.6666666666667" y="128" />
            </Array>
          </mxGeometry>
        </mxCell>
        <mxCell id="crTm-84iP_dX2z0zRbLP-76" value="meal_id" style="ellipse;whiteSpace=wrap;html=1;" parent="WIyWlLk6GJQsqaUBKTNV-1" vertex="1">
          <mxGeometry x="1210" width="80" height="40" as="geometry" />
        </mxCell>
        <mxCell id="crTm-84iP_dX2z0zRbLP-82" style="edgeStyle=orthogonalEdgeStyle;rounded=0;orthogonalLoop=1;jettySize=auto;html=1;noEdgeStyle=1;orthogonal=1;endArrow=none;endFill=0;" parent="WIyWlLk6GJQsqaUBKTNV-1" source="crTm-84iP_dX2z0zRbLP-77" target="crTm-84iP_dX2z0zRbLP-4" edge="1">
          <mxGeometry relative="1" as="geometry">
            <mxPoint x="1580" y="30" as="sourcePoint" />
            <Array as="points">
              <mxPoint x="1030" y="52" />
              <mxPoint x="1150.3333333333333" y="128" />
            </Array>
          </mxGeometry>
        </mxCell>
        <mxCell id="crTm-84iP_dX2z0zRbLP-77" value="date_time" style="ellipse;whiteSpace=wrap;html=1;" parent="WIyWlLk6GJQsqaUBKTNV-1" vertex="1">
          <mxGeometry x="990" width="80" height="40" as="geometry" />
        </mxCell>
        <mxCell id="crTm-84iP_dX2z0zRbLP-83" style="edgeStyle=orthogonalEdgeStyle;rounded=0;orthogonalLoop=1;jettySize=auto;html=1;noEdgeStyle=1;orthogonal=1;endArrow=none;endFill=0;" parent="WIyWlLk6GJQsqaUBKTNV-1" source="crTm-84iP_dX2z0zRbLP-78" target="crTm-84iP_dX2z0zRbLP-4" edge="1">
          <mxGeometry relative="1" as="geometry">
            <Array as="points">
              <mxPoint x="1140" y="52" />
              <mxPoint x="1187" y="126" />
            </Array>
          </mxGeometry>
        </mxCell>
        <mxCell id="crTm-84iP_dX2z0zRbLP-78" value="nif" style="ellipse;whiteSpace=wrap;html=1;" parent="WIyWlLk6GJQsqaUBKTNV-1" vertex="1">
          <mxGeometry x="1100" width="80" height="40" as="geometry" />
        </mxCell>
        <mxCell id="crTm-84iP_dX2z0zRbLP-89" style="edgeStyle=orthogonalEdgeStyle;rounded=0;orthogonalLoop=1;jettySize=auto;html=1;noEdgeStyle=1;orthogonal=1;endArrow=none;endFill=0;" parent="WIyWlLk6GJQsqaUBKTNV-1" source="crTm-84iP_dX2z0zRbLP-85" target="crTm-84iP_dX2z0zRbLP-10" edge="1">
          <mxGeometry relative="1" as="geometry">
            <Array as="points">
              <mxPoint x="1690" y="52" />
              <mxPoint x="1522.05" y="128" />
            </Array>
          </mxGeometry>
        </mxCell>
        <mxCell id="crTm-84iP_dX2z0zRbLP-85" value="id" style="ellipse;whiteSpace=wrap;html=1;" parent="WIyWlLk6GJQsqaUBKTNV-1" vertex="1">
          <mxGeometry x="1650" width="80" height="40" as="geometry" />
        </mxCell>
        <mxCell id="crTm-84iP_dX2z0zRbLP-90" style="edgeStyle=orthogonalEdgeStyle;rounded=0;orthogonalLoop=1;jettySize=auto;html=1;noEdgeStyle=1;orthogonal=1;endArrow=none;endFill=0;" parent="WIyWlLk6GJQsqaUBKTNV-1" source="crTm-84iP_dX2z0zRbLP-86" target="crTm-84iP_dX2z0zRbLP-10" edge="1">
          <mxGeometry relative="1" as="geometry">
            <Array as="points">
              <mxPoint x="1360" y="52" />
              <mxPoint x="1439.55" y="128" />
            </Array>
          </mxGeometry>
        </mxCell>
        <mxCell id="crTm-84iP_dX2z0zRbLP-86" value="nif" style="ellipse;whiteSpace=wrap;html=1;" parent="WIyWlLk6GJQsqaUBKTNV-1" vertex="1">
          <mxGeometry x="1320" width="80" height="40" as="geometry" />
        </mxCell>
        <mxCell id="crTm-84iP_dX2z0zRbLP-91" style="edgeStyle=orthogonalEdgeStyle;rounded=0;orthogonalLoop=1;jettySize=auto;html=1;noEdgeStyle=1;orthogonal=1;endArrow=none;endFill=0;" parent="WIyWlLk6GJQsqaUBKTNV-1" source="crTm-84iP_dX2z0zRbLP-87" target="crTm-84iP_dX2z0zRbLP-10" edge="1">
          <mxGeometry relative="1" as="geometry">
            <Array as="points">
              <mxPoint x="1470" y="52" />
              <mxPoint x="1467.05" y="126" />
            </Array>
          </mxGeometry>
        </mxCell>
        <mxCell id="crTm-84iP_dX2z0zRbLP-87" value="name" style="ellipse;whiteSpace=wrap;html=1;" parent="WIyWlLk6GJQsqaUBKTNV-1" vertex="1">
          <mxGeometry x="1430" width="80" height="40" as="geometry" />
        </mxCell>
        <mxCell id="crTm-84iP_dX2z0zRbLP-92" style="edgeStyle=orthogonalEdgeStyle;rounded=0;orthogonalLoop=1;jettySize=auto;html=1;noEdgeStyle=1;orthogonal=1;endArrow=none;endFill=0;" parent="WIyWlLk6GJQsqaUBKTNV-1" source="crTm-84iP_dX2z0zRbLP-88" target="crTm-84iP_dX2z0zRbLP-10" edge="1">
          <mxGeometry relative="1" as="geometry">
            <Array as="points">
              <mxPoint x="1580" y="52" />
              <mxPoint x="1494.55" y="126" />
            </Array>
          </mxGeometry>
        </mxCell>
        <mxCell id="crTm-84iP_dX2z0zRbLP-88" value="surname" style="ellipse;whiteSpace=wrap;html=1;" parent="WIyWlLk6GJQsqaUBKTNV-1" vertex="1">
          <mxGeometry x="1540" width="80" height="40" as="geometry" />
        </mxCell>
        <mxCell id="zlERrwY3Ksykcgf0b52f-12" style="edgeStyle=orthogonalEdgeStyle;rounded=0;orthogonalLoop=1;jettySize=auto;html=1;noEdgeStyle=1;orthogonal=1;endArrow=none;endFill=0;" parent="WIyWlLk6GJQsqaUBKTNV-1" source="zlERrwY3Ksykcgf0b52f-0" target="crTm-84iP_dX2z0zRbLP-7" edge="1">
          <mxGeometry relative="1" as="geometry">
            <Array as="points">
              <mxPoint x="2680" y="52" />
              <mxPoint x="2108.8888888888887" y="128" />
            </Array>
          </mxGeometry>
        </mxCell>
        <mxCell id="zlERrwY3Ksykcgf0b52f-0" value="price" style="ellipse;whiteSpace=wrap;html=1;" parent="WIyWlLk6GJQsqaUBKTNV-1" vertex="1">
          <mxGeometry x="2640" width="80" height="40" as="geometry" />
        </mxCell>
        <mxCell id="zlERrwY3Ksykcgf0b52f-13" style="edgeStyle=orthogonalEdgeStyle;rounded=0;orthogonalLoop=1;jettySize=auto;html=1;noEdgeStyle=1;orthogonal=1;endArrow=none;endFill=0;" parent="WIyWlLk6GJQsqaUBKTNV-1" source="zlERrwY3Ksykcgf0b52f-1" target="crTm-84iP_dX2z0zRbLP-7" edge="1">
          <mxGeometry relative="1" as="geometry">
            <Array as="points">
              <mxPoint x="1800" y="52" />
              <mxPoint x="2011.111111111111" y="128" />
            </Array>
          </mxGeometry>
        </mxCell>
        <mxCell id="zlERrwY3Ksykcgf0b52f-1" value="meal_id" style="ellipse;whiteSpace=wrap;html=1;" parent="WIyWlLk6GJQsqaUBKTNV-1" vertex="1">
          <mxGeometry x="1760" width="80" height="40" as="geometry" />
        </mxCell>
        <mxCell id="zlERrwY3Ksykcgf0b52f-14" style="edgeStyle=orthogonalEdgeStyle;rounded=0;orthogonalLoop=1;jettySize=auto;html=1;noEdgeStyle=1;orthogonal=1;endArrow=none;endFill=0;" parent="WIyWlLk6GJQsqaUBKTNV-1" source="zlERrwY3Ksykcgf0b52f-2" target="crTm-84iP_dX2z0zRbLP-7" edge="1">
          <mxGeometry relative="1" as="geometry">
            <Array as="points">
              <mxPoint x="1910" y="52" />
              <mxPoint x="2023.3333333333333" y="126" />
            </Array>
          </mxGeometry>
        </mxCell>
        <mxCell id="zlERrwY3Ksykcgf0b52f-2" value="observation" style="ellipse;whiteSpace=wrap;html=1;" parent="WIyWlLk6GJQsqaUBKTNV-1" vertex="1">
          <mxGeometry x="1870" width="80" height="40" as="geometry" />
        </mxCell>
        <mxCell id="zlERrwY3Ksykcgf0b52f-9" style="edgeStyle=orthogonalEdgeStyle;rounded=0;orthogonalLoop=1;jettySize=auto;html=1;noEdgeStyle=1;orthogonal=1;endArrow=none;endFill=0;" parent="WIyWlLk6GJQsqaUBKTNV-1" source="zlERrwY3Ksykcgf0b52f-3" target="crTm-84iP_dX2z0zRbLP-7" edge="1">
          <mxGeometry relative="1" as="geometry">
            <Array as="points">
              <mxPoint x="2020" y="52" />
              <mxPoint x="2035.5555555555554" y="124" />
            </Array>
          </mxGeometry>
        </mxCell>
        <mxCell id="zlERrwY3Ksykcgf0b52f-3" value="id" style="ellipse;whiteSpace=wrap;html=1;" parent="WIyWlLk6GJQsqaUBKTNV-1" vertex="1">
          <mxGeometry x="1980" width="80" height="40" as="geometry" />
        </mxCell>
        <mxCell id="zlERrwY3Ksykcgf0b52f-10" style="edgeStyle=orthogonalEdgeStyle;rounded=0;orthogonalLoop=1;jettySize=auto;html=1;noEdgeStyle=1;orthogonal=1;endArrow=none;endFill=0;" parent="WIyWlLk6GJQsqaUBKTNV-1" source="zlERrwY3Ksykcgf0b52f-4" target="crTm-84iP_dX2z0zRbLP-7" edge="1">
          <mxGeometry relative="1" as="geometry">
            <Array as="points">
              <mxPoint x="2130" y="52" />
              <mxPoint x="2047.7777777777776" y="122" />
            </Array>
          </mxGeometry>
        </mxCell>
        <mxCell id="zlERrwY3Ksykcgf0b52f-4" value="user_id" style="ellipse;whiteSpace=wrap;html=1;" parent="WIyWlLk6GJQsqaUBKTNV-1" vertex="1">
          <mxGeometry x="2090" width="80" height="40" as="geometry" />
        </mxCell>
        <mxCell id="zlERrwY3Ksykcgf0b52f-11" style="edgeStyle=orthogonalEdgeStyle;rounded=0;orthogonalLoop=1;jettySize=auto;html=1;noEdgeStyle=1;orthogonal=1;endArrow=none;endFill=0;" parent="WIyWlLk6GJQsqaUBKTNV-1" source="zlERrwY3Ksykcgf0b52f-5" target="crTm-84iP_dX2z0zRbLP-7" edge="1">
          <mxGeometry relative="1" as="geometry">
            <Array as="points">
              <mxPoint x="2240" y="52" />
              <mxPoint x="2060" y="120" />
            </Array>
          </mxGeometry>
        </mxCell>
        <mxCell id="zlERrwY3Ksykcgf0b52f-5" value="date_time" style="ellipse;whiteSpace=wrap;html=1;" parent="WIyWlLk6GJQsqaUBKTNV-1" vertex="1">
          <mxGeometry x="2200" width="80" height="40" as="geometry" />
        </mxCell>
        <mxCell id="zlERrwY3Ksykcgf0b52f-15" style="edgeStyle=orthogonalEdgeStyle;rounded=0;orthogonalLoop=1;jettySize=auto;html=1;noEdgeStyle=1;orthogonal=1;endArrow=none;endFill=0;" parent="WIyWlLk6GJQsqaUBKTNV-1" source="zlERrwY3Ksykcgf0b52f-6" target="crTm-84iP_dX2z0zRbLP-7" edge="1">
          <mxGeometry relative="1" as="geometry">
            <Array as="points">
              <mxPoint x="2350" y="52" />
              <mxPoint x="2072.222222222222" y="122" />
            </Array>
          </mxGeometry>
        </mxCell>
        <mxCell id="zlERrwY3Ksykcgf0b52f-6" value="plate_id" style="ellipse;whiteSpace=wrap;html=1;" parent="WIyWlLk6GJQsqaUBKTNV-1" vertex="1">
          <mxGeometry x="2310" width="80" height="40" as="geometry" />
        </mxCell>
        <mxCell id="zlERrwY3Ksykcgf0b52f-16" style="edgeStyle=orthogonalEdgeStyle;rounded=0;orthogonalLoop=1;jettySize=auto;html=1;noEdgeStyle=1;orthogonal=1;endArrow=none;endFill=0;" parent="WIyWlLk6GJQsqaUBKTNV-1" source="zlERrwY3Ksykcgf0b52f-7" target="crTm-84iP_dX2z0zRbLP-7" edge="1">
          <mxGeometry relative="1" as="geometry">
            <Array as="points">
              <mxPoint x="2460" y="52" />
              <mxPoint x="2084.4444444444443" y="124" />
            </Array>
          </mxGeometry>
        </mxCell>
        <mxCell id="zlERrwY3Ksykcgf0b52f-7" value="isCooked" style="ellipse;whiteSpace=wrap;html=1;" parent="WIyWlLk6GJQsqaUBKTNV-1" vertex="1">
          <mxGeometry x="2420" width="80" height="40" as="geometry" />
        </mxCell>
        <mxCell id="zlERrwY3Ksykcgf0b52f-17" style="edgeStyle=orthogonalEdgeStyle;rounded=0;orthogonalLoop=1;jettySize=auto;html=1;noEdgeStyle=1;orthogonal=1;endArrow=none;endFill=0;" parent="WIyWlLk6GJQsqaUBKTNV-1" source="zlERrwY3Ksykcgf0b52f-8" target="crTm-84iP_dX2z0zRbLP-7" edge="1">
          <mxGeometry relative="1" as="geometry">
            <Array as="points">
              <mxPoint x="2570" y="52" />
              <mxPoint x="2096.6666666666665" y="126" />
            </Array>
          </mxGeometry>
        </mxCell>
        <mxCell id="zlERrwY3Ksykcgf0b52f-8" value="isDelivered" style="ellipse;whiteSpace=wrap;html=1;" parent="WIyWlLk6GJQsqaUBKTNV-1" vertex="1">
          <mxGeometry x="2530" width="80" height="40" as="geometry" />
        </mxCell>
        <mxCell id="zlERrwY3Ksykcgf0b52f-22" style="edgeStyle=orthogonalEdgeStyle;rounded=0;orthogonalLoop=1;jettySize=auto;html=1;noEdgeStyle=1;orthogonal=1;endArrow=none;endFill=0;" parent="WIyWlLk6GJQsqaUBKTNV-1" source="zlERrwY3Ksykcgf0b52f-18" target="crTm-84iP_dX2z0zRbLP-9" edge="1">
          <mxGeometry relative="1" as="geometry">
            <Array as="points">
              <mxPoint x="3120" y="52" />
              <mxPoint x="2251.25" y="128" />
            </Array>
          </mxGeometry>
        </mxCell>
        <mxCell id="zlERrwY3Ksykcgf0b52f-18" value="id" style="ellipse;whiteSpace=wrap;html=1;" parent="WIyWlLk6GJQsqaUBKTNV-1" vertex="1">
          <mxGeometry x="3080" width="80" height="40" as="geometry" />
        </mxCell>
        <mxCell id="zlERrwY3Ksykcgf0b52f-23" style="edgeStyle=orthogonalEdgeStyle;rounded=0;orthogonalLoop=1;jettySize=auto;html=1;noEdgeStyle=1;orthogonal=1;endArrow=none;endFill=0;" parent="WIyWlLk6GJQsqaUBKTNV-1" source="zlERrwY3Ksykcgf0b52f-19" target="crTm-84iP_dX2z0zRbLP-9" edge="1">
          <mxGeometry relative="1" as="geometry">
            <Array as="points">
              <mxPoint x="2790" y="52" />
              <mxPoint x="2168.75" y="128" />
            </Array>
          </mxGeometry>
        </mxCell>
        <mxCell id="zlERrwY3Ksykcgf0b52f-19" value="nif" style="ellipse;whiteSpace=wrap;html=1;" parent="WIyWlLk6GJQsqaUBKTNV-1" vertex="1">
          <mxGeometry x="2750" width="80" height="40" as="geometry" />
        </mxCell>
        <mxCell id="zlERrwY3Ksykcgf0b52f-24" style="edgeStyle=orthogonalEdgeStyle;rounded=0;orthogonalLoop=1;jettySize=auto;html=1;noEdgeStyle=1;orthogonal=1;endArrow=none;endFill=0;" parent="WIyWlLk6GJQsqaUBKTNV-1" source="zlERrwY3Ksykcgf0b52f-20" target="crTm-84iP_dX2z0zRbLP-9" edge="1">
          <mxGeometry relative="1" as="geometry">
            <Array as="points">
              <mxPoint x="2900" y="52" />
              <mxPoint x="2196.25" y="126" />
            </Array>
          </mxGeometry>
        </mxCell>
        <mxCell id="zlERrwY3Ksykcgf0b52f-20" value="name" style="ellipse;whiteSpace=wrap;html=1;" parent="WIyWlLk6GJQsqaUBKTNV-1" vertex="1">
          <mxGeometry x="2860" width="80" height="40" as="geometry" />
        </mxCell>
        <mxCell id="zlERrwY3Ksykcgf0b52f-25" style="edgeStyle=orthogonalEdgeStyle;rounded=0;orthogonalLoop=1;jettySize=auto;html=1;noEdgeStyle=1;orthogonal=1;endArrow=none;endFill=0;" parent="WIyWlLk6GJQsqaUBKTNV-1" source="zlERrwY3Ksykcgf0b52f-21" target="crTm-84iP_dX2z0zRbLP-9" edge="1">
          <mxGeometry relative="1" as="geometry">
            <Array as="points">
              <mxPoint x="3010" y="52" />
              <mxPoint x="2223.75" y="126" />
            </Array>
          </mxGeometry>
        </mxCell>
        <mxCell id="zlERrwY3Ksykcgf0b52f-21" value="palte_id" style="ellipse;whiteSpace=wrap;html=1;" parent="WIyWlLk6GJQsqaUBKTNV-1" vertex="1">
          <mxGeometry x="2970" width="80" height="40" as="geometry" />
        </mxCell>
        <mxCell id="zlERrwY3Ksykcgf0b52f-32" style="edgeStyle=orthogonalEdgeStyle;rounded=0;orthogonalLoop=1;jettySize=auto;html=1;noEdgeStyle=1;orthogonal=1;endArrow=none;endFill=0;" parent="WIyWlLk6GJQsqaUBKTNV-1" source="zlERrwY3Ksykcgf0b52f-26" target="crTm-84iP_dX2z0zRbLP-8" edge="1">
          <mxGeometry relative="1" as="geometry">
            <Array as="points">
              <mxPoint x="3780" y="52" />
              <mxPoint x="3014.333333333334" y="128" />
            </Array>
          </mxGeometry>
        </mxCell>
        <mxCell id="zlERrwY3Ksykcgf0b52f-26" value="id" style="ellipse;whiteSpace=wrap;html=1;" parent="WIyWlLk6GJQsqaUBKTNV-1" vertex="1">
          <mxGeometry x="3740" width="80" height="40" as="geometry" />
        </mxCell>
        <mxCell id="zlERrwY3Ksykcgf0b52f-33" style="edgeStyle=orthogonalEdgeStyle;rounded=0;orthogonalLoop=1;jettySize=auto;html=1;noEdgeStyle=1;orthogonal=1;endArrow=none;endFill=0;" parent="WIyWlLk6GJQsqaUBKTNV-1" source="zlERrwY3Ksykcgf0b52f-27" target="crTm-84iP_dX2z0zRbLP-8" edge="1">
          <mxGeometry relative="1" as="geometry">
            <Array as="points">
              <mxPoint x="3230" y="52" />
              <mxPoint x="2922.6666666666665" y="128" />
            </Array>
          </mxGeometry>
        </mxCell>
        <mxCell id="zlERrwY3Ksykcgf0b52f-27" value="user_id" style="ellipse;whiteSpace=wrap;html=1;" parent="WIyWlLk6GJQsqaUBKTNV-1" vertex="1">
          <mxGeometry x="3190" width="80" height="40" as="geometry" />
        </mxCell>
        <mxCell id="zlERrwY3Ksykcgf0b52f-34" style="edgeStyle=orthogonalEdgeStyle;rounded=0;orthogonalLoop=1;jettySize=auto;html=1;noEdgeStyle=1;orthogonal=1;endArrow=none;endFill=0;" parent="WIyWlLk6GJQsqaUBKTNV-1" source="zlERrwY3Ksykcgf0b52f-28" target="crTm-84iP_dX2z0zRbLP-8" edge="1">
          <mxGeometry relative="1" as="geometry">
            <mxPoint x="320" y="530" as="sourcePoint" />
            <Array as="points">
              <mxPoint x="3340" y="52" />
              <mxPoint x="2941" y="126" />
            </Array>
          </mxGeometry>
        </mxCell>
        <mxCell id="zlERrwY3Ksykcgf0b52f-28" value="plate_id" style="ellipse;whiteSpace=wrap;html=1;" parent="WIyWlLk6GJQsqaUBKTNV-1" vertex="1">
          <mxGeometry x="3300" width="80" height="40" as="geometry" />
        </mxCell>
        <mxCell id="zlERrwY3Ksykcgf0b52f-35" style="edgeStyle=orthogonalEdgeStyle;rounded=0;orthogonalLoop=1;jettySize=auto;html=1;noEdgeStyle=1;orthogonal=1;endArrow=none;endFill=0;" parent="WIyWlLk6GJQsqaUBKTNV-1" source="zlERrwY3Ksykcgf0b52f-29" target="crTm-84iP_dX2z0zRbLP-8" edge="1">
          <mxGeometry relative="1" as="geometry">
            <Array as="points">
              <mxPoint x="3450" y="52" />
              <mxPoint x="2959.3333333333335" y="124" />
            </Array>
          </mxGeometry>
        </mxCell>
        <mxCell id="zlERrwY3Ksykcgf0b52f-29" value="description" style="ellipse;whiteSpace=wrap;html=1;" parent="WIyWlLk6GJQsqaUBKTNV-1" vertex="1">
          <mxGeometry x="3410" width="80" height="40" as="geometry" />
        </mxCell>
        <mxCell id="zlERrwY3Ksykcgf0b52f-36" style="edgeStyle=orthogonalEdgeStyle;rounded=0;orthogonalLoop=1;jettySize=auto;html=1;noEdgeStyle=1;orthogonal=1;endArrow=none;endFill=0;" parent="WIyWlLk6GJQsqaUBKTNV-1" source="zlERrwY3Ksykcgf0b52f-30" target="crTm-84iP_dX2z0zRbLP-8" edge="1">
          <mxGeometry relative="1" as="geometry">
            <Array as="points">
              <mxPoint x="3560" y="52" />
              <mxPoint x="2977.666666666667" y="124" />
            </Array>
          </mxGeometry>
        </mxCell>
        <mxCell id="zlERrwY3Ksykcgf0b52f-30" value="value" style="ellipse;whiteSpace=wrap;html=1;" parent="WIyWlLk6GJQsqaUBKTNV-1" vertex="1">
          <mxGeometry x="3520" width="80" height="40" as="geometry" />
        </mxCell>
        <mxCell id="zlERrwY3Ksykcgf0b52f-37" style="edgeStyle=orthogonalEdgeStyle;rounded=0;orthogonalLoop=1;jettySize=auto;html=1;noEdgeStyle=1;orthogonal=1;endArrow=none;endFill=0;" parent="WIyWlLk6GJQsqaUBKTNV-1" source="zlERrwY3Ksykcgf0b52f-31" target="crTm-84iP_dX2z0zRbLP-8" edge="1">
          <mxGeometry relative="1" as="geometry">
            <Array as="points">
              <mxPoint x="3670" y="52" />
              <mxPoint x="2996.0000000000005" y="126" />
            </Array>
          </mxGeometry>
        </mxCell>
        <mxCell id="zlERrwY3Ksykcgf0b52f-31" value="date_time" style="ellipse;whiteSpace=wrap;html=1;" parent="WIyWlLk6GJQsqaUBKTNV-1" vertex="1">
          <mxGeometry x="3630" width="80" height="40" as="geometry" />
        </mxCell>
        <mxCell id="zlERrwY3Ksykcgf0b52f-47" style="edgeStyle=orthogonalEdgeStyle;rounded=0;orthogonalLoop=1;jettySize=auto;html=1;noEdgeStyle=1;orthogonal=1;endArrow=none;endFill=0;" parent="WIyWlLk6GJQsqaUBKTNV-1" source="zlERrwY3Ksykcgf0b52f-38" target="crTm-84iP_dX2z0zRbLP-6" edge="1">
          <mxGeometry relative="1" as="geometry">
            <Array as="points">
              <mxPoint x="1814" y="392" />
              <mxPoint x="1912.7777777777776" y="462" />
            </Array>
          </mxGeometry>
        </mxCell>
        <mxCell id="zlERrwY3Ksykcgf0b52f-38" value="id" style="ellipse;whiteSpace=wrap;html=1;" parent="WIyWlLk6GJQsqaUBKTNV-1" vertex="1">
          <mxGeometry x="1774" y="320" width="80" height="40" as="geometry" />
        </mxCell>
        <mxCell id="zlERrwY3Ksykcgf0b52f-46" style="edgeStyle=orthogonalEdgeStyle;rounded=0;orthogonalLoop=1;jettySize=auto;html=1;noEdgeStyle=1;orthogonal=1;endArrow=none;endFill=0;" parent="WIyWlLk6GJQsqaUBKTNV-1" source="zlERrwY3Ksykcgf0b52f-39" target="crTm-84iP_dX2z0zRbLP-6" edge="1">
          <mxGeometry relative="1" as="geometry">
            <Array as="points">
              <mxPoint x="1924" y="392" />
              <mxPoint x="1924.9999999999998" y="460" />
            </Array>
          </mxGeometry>
        </mxCell>
        <mxCell id="zlERrwY3Ksykcgf0b52f-39" value="description" style="ellipse;whiteSpace=wrap;html=1;" parent="WIyWlLk6GJQsqaUBKTNV-1" vertex="1">
          <mxGeometry x="1884" y="320" width="80" height="40" as="geometry" />
        </mxCell>
        <mxCell id="zlERrwY3Ksykcgf0b52f-40" value="price" style="ellipse;whiteSpace=wrap;html=1;" parent="WIyWlLk6GJQsqaUBKTNV-1" vertex="1">
          <mxGeometry x="1980" y="660" width="80" height="40" as="geometry" />
        </mxCell>
        <mxCell id="zlERrwY3Ksykcgf0b52f-48" style="edgeStyle=orthogonalEdgeStyle;rounded=0;orthogonalLoop=1;jettySize=auto;html=1;noEdgeStyle=1;orthogonal=1;endArrow=none;endFill=0;" parent="WIyWlLk6GJQsqaUBKTNV-1" source="zlERrwY3Ksykcgf0b52f-41" target="crTm-84iP_dX2z0zRbLP-6" edge="1">
          <mxGeometry relative="1" as="geometry">
            <Array as="points">
              <mxPoint x="2034" y="392" />
              <mxPoint x="1937.222222222222" y="462" />
            </Array>
          </mxGeometry>
        </mxCell>
        <mxCell id="zlERrwY3Ksykcgf0b52f-41" value="title" style="ellipse;whiteSpace=wrap;html=1;" parent="WIyWlLk6GJQsqaUBKTNV-1" vertex="1">
          <mxGeometry x="1994" y="320" width="80" height="40" as="geometry" />
        </mxCell>
        <mxCell id="zlERrwY3Ksykcgf0b52f-49" style="edgeStyle=orthogonalEdgeStyle;rounded=0;orthogonalLoop=1;jettySize=auto;html=1;noEdgeStyle=1;orthogonal=1;endArrow=none;endFill=0;" parent="WIyWlLk6GJQsqaUBKTNV-1" source="zlERrwY3Ksykcgf0b52f-42" target="crTm-84iP_dX2z0zRbLP-6" edge="1">
          <mxGeometry relative="1" as="geometry">
            <Array as="points">
              <mxPoint x="2144" y="392" />
              <mxPoint x="1949.4444444444441" y="464" />
            </Array>
          </mxGeometry>
        </mxCell>
        <mxCell id="zlERrwY3Ksykcgf0b52f-42" value="image_name" style="ellipse;whiteSpace=wrap;html=1;" parent="WIyWlLk6GJQsqaUBKTNV-1" vertex="1">
          <mxGeometry x="2104" y="320" width="80" height="40" as="geometry" />
        </mxCell>
        <mxCell id="zlERrwY3Ksykcgf0b52f-45" style="edgeStyle=orthogonalEdgeStyle;rounded=0;orthogonalLoop=1;jettySize=auto;html=1;noEdgeStyle=1;orthogonal=1;endArrow=none;endFill=0;" parent="WIyWlLk6GJQsqaUBKTNV-1" source="zlERrwY3Ksykcgf0b52f-43" target="crTm-84iP_dX2z0zRbLP-6" edge="1">
          <mxGeometry relative="1" as="geometry">
            <Array as="points">
              <mxPoint x="2254" y="392" />
              <mxPoint x="1961.6666666666663" y="466" />
            </Array>
          </mxGeometry>
        </mxCell>
        <mxCell id="zlERrwY3Ksykcgf0b52f-43" value="date_time" style="ellipse;whiteSpace=wrap;html=1;" parent="WIyWlLk6GJQsqaUBKTNV-1" vertex="1">
          <mxGeometry x="2214" y="320" width="80" height="40" as="geometry" />
        </mxCell>
        <mxCell id="zlERrwY3Ksykcgf0b52f-54" style="edgeStyle=orthogonalEdgeStyle;rounded=0;orthogonalLoop=1;jettySize=auto;html=1;noEdgeStyle=1;orthogonal=1;endArrow=none;endFill=0;" parent="WIyWlLk6GJQsqaUBKTNV-1" source="zlERrwY3Ksykcgf0b52f-50" target="crTm-84iP_dX2z0zRbLP-5" edge="1">
          <mxGeometry relative="1" as="geometry">
            <Array as="points">
              <mxPoint x="3026" y="392" />
              <mxPoint x="2706.833333333334" y="468" />
            </Array>
          </mxGeometry>
        </mxCell>
        <mxCell id="zlERrwY3Ksykcgf0b52f-50" value="id" style="ellipse;whiteSpace=wrap;html=1;" parent="WIyWlLk6GJQsqaUBKTNV-1" vertex="1">
          <mxGeometry x="2986" y="320" width="80" height="40" as="geometry" />
        </mxCell>
        <mxCell id="zlERrwY3Ksykcgf0b52f-55" style="edgeStyle=orthogonalEdgeStyle;rounded=0;orthogonalLoop=1;jettySize=auto;html=1;noEdgeStyle=1;orthogonal=1;endArrow=none;endFill=0;" parent="WIyWlLk6GJQsqaUBKTNV-1" source="zlERrwY3Ksykcgf0b52f-51" target="crTm-84iP_dX2z0zRbLP-5" edge="1">
          <mxGeometry relative="1" as="geometry">
            <Array as="points">
              <mxPoint x="2694" y="392" />
              <mxPoint x="2651.8333333333335" y="464" />
            </Array>
          </mxGeometry>
        </mxCell>
        <mxCell id="zlERrwY3Ksykcgf0b52f-51" value="checkout" style="ellipse;whiteSpace=wrap;html=1;" parent="WIyWlLk6GJQsqaUBKTNV-1" vertex="1">
          <mxGeometry x="2654" y="320" width="80" height="40" as="geometry" />
        </mxCell>
        <mxCell id="zlERrwY3Ksykcgf0b52f-56" style="edgeStyle=orthogonalEdgeStyle;rounded=0;orthogonalLoop=1;jettySize=auto;html=1;noEdgeStyle=1;orthogonal=1;endArrow=none;endFill=0;" parent="WIyWlLk6GJQsqaUBKTNV-1" source="zlERrwY3Ksykcgf0b52f-52" target="crTm-84iP_dX2z0zRbLP-5" edge="1">
          <mxGeometry relative="1" as="geometry">
            <Array as="points">
              <mxPoint x="2805" y="392" />
              <mxPoint x="2670.166666666667" y="464" />
            </Array>
          </mxGeometry>
        </mxCell>
        <mxCell id="zlERrwY3Ksykcgf0b52f-52" value="dinner_table_id" style="ellipse;whiteSpace=wrap;html=1;" parent="WIyWlLk6GJQsqaUBKTNV-1" vertex="1">
          <mxGeometry x="2765" y="320" width="80" height="40" as="geometry" />
        </mxCell>
        <mxCell id="zlERrwY3Ksykcgf0b52f-57" style="edgeStyle=orthogonalEdgeStyle;rounded=0;orthogonalLoop=1;jettySize=auto;html=1;noEdgeStyle=1;orthogonal=1;endArrow=none;endFill=0;" parent="WIyWlLk6GJQsqaUBKTNV-1" source="zlERrwY3Ksykcgf0b52f-53" target="crTm-84iP_dX2z0zRbLP-5" edge="1">
          <mxGeometry relative="1" as="geometry">
            <Array as="points">
              <mxPoint x="2916" y="392" />
              <mxPoint x="2688.5000000000005" y="466" />
            </Array>
          </mxGeometry>
        </mxCell>
        <mxCell id="zlERrwY3Ksykcgf0b52f-53" value="date_time" style="ellipse;whiteSpace=wrap;html=1;" parent="WIyWlLk6GJQsqaUBKTNV-1" vertex="1">
          <mxGeometry x="2876" y="320" width="80" height="40" as="geometry" />
        </mxCell>
      </root>
    </mxGraphModel>
  </diagram>
</mxfile>
